<?xml version="1.0" encoding="utf-8"?>
<!-- Generator: Adobe Illustrator 27.9.0, SVG Export Plug-In . SVG Version: 6.00 Build 0)  -->
<svg version="1.1" xmlns="http://www.w3.org/2000/svg" xmlns:xlink="http://www.w3.org/1999/xlink" x="0px" y="0px"
	 viewBox="0 0 3000 850" style="enable-background:new 0 0 3000 850;" xml:space="preserve">
<style type="text/css">
	.st0{display:none;}
	.st1{display:inline;}
	.st2{fill:#00FF30;}
	.st3{fill:#FFFFFF;}
</style>
<g id="Background" class="st0">
	
		<rect id="Background_00000065766856163706304650000007433321457498957707_" x="-113.71" y="-32.22" class="st1" width="3227.41" height="914.43"/>
</g>
<g id="Logo">
	<g id="Logo_00000042717765849580902220000004749246098731808950_">
		<g id="Text">
			<path id="X" class="st2" d="M2801.43,325.71h-37.52c-16.89,0-33.13,6.52-45.33,18.2l-40.67,38.93l-29.15-57.13h-63.85l-0.54,2.18
				l49.46,97.14l-101.4,97.05l-0.54,2.18h64.06l59.42-56.93l28.99,56.93h64.06l0.54-2.18l-49.49-97l101.43-97.19L2801.43,325.71z"/>
			<path id="A_00000160908655864970320500000004130653227376063134_" class="st2" d="M2512.01,522.11l-0.54,2.18h-61.73
				c-2.65-9.17-5.83-20.31-9.02-31.65l-97.88,0.19l34.1-45.78h51.27c-0.94-3.57-1.75-6.73-2.36-9.22l-15.75-62.73
				c-0.45-1.38-1.4-1.93-3.33-1.93h-3.26c-1.63,0-2.86,0.54-4.04,1.93l-111.11,149.2h-64.91l0.54-2.18l146.9-189.84
				c3.66-4.94,5.7-6.57,11.98-6.57h68.47c6.28,0,7.8,1.63,9.29,6.57L2512.01,522.11z"/>
			<path id="M" class="st2" d="M2077.63,474.91l73.89-141.83c2.79-4.63,6.74-7.36,13.02-7.36h81.55c5.18,0,6.95,2.73,5.59,8.18
				l-47.47,190.38h-52.91l38.29-153.55l0,0c-2.46,0-4.43,1.36-5.8,3.54l-77.34,143.84c-2.26,3.7-6.4,6.17-10.34,6.17h-52.39
				c-3.95,0-6.85-2.47-7.26-6.19l-15.92-143.82c-0.28-2.18-1.57-3.54-4.3-3.54l0,0l-38.29,153.55h-52.64l47.47-190.38
				c1.36-5.45,4.49-8.18,9.67-8.18h82.64c6.27,0,9.14,2.73,9.62,7.36L2077.63,474.91"/>
			<polygon id="H" class="st3" points="1889.51,325.71 1871.15,399.36 1756.2,399.36 1774.56,325.71 1718.38,325.71 1668.87,524.27 
				1725.05,524.27 1744.09,447.9 1859.04,447.9 1840,524.27 1896.46,524.27 1945.97,325.71 			"/>
			<path id="S" class="st3" d="M1631.78,407.3l-101.39-17.18c-6.84-1.09-8.75-2.18-6.85-9.82l0.34-1.37
				c1.57-6.3,4.84-9.54,12.49-9.54h144.66l10.89-43.67h-167.3c-35.46,0-53.77,16.66-60.91,45.29l-4.35,17.43
				c-7.21,28.91,2.41,41.73,33.55,45.81l97.57,15c6.63,0.81,7.99,2.99,6.28,9.82l-0.48,1.94c-2.18,8.73-5.35,11.73-14.65,11.73
				h-140.86l-12.85,51.55h159.13c43.91,0,62.81-17.75,70.97-50.46l4.82-19.33C1670.32,424.48,1662.32,411.67,1631.78,407.3z"/>
			<path id="A_00000183235950932015468050000007103438625237092483_" class="st3" d="M1408.49,522.11l-0.54,2.18h-61.73
				c-2.65-9.17-5.83-20.31-9.02-31.65l-97.88,0.19l34.1-45.78h51.27c-0.94-3.57-1.75-6.73-2.36-9.22l-15.75-62.73
				c-0.45-1.38-1.4-1.93-3.33-1.93h-3.26c-1.63,0-2.86,0.54-4.04,1.93l-111.11,149.2h-64.91l0.54-2.18l146.9-189.84
				c3.66-4.94,5.7-6.57,11.98-6.57h68.47c6.28,0,7.8,1.63,9.28,6.57L1408.49,522.11z"/>
			<path id="C" class="st3" d="M1001.87,375.36h137.58l6.85-27.46c2.81-11.28-5.72-22.19-17.34-22.19h-119.61
				c-59.2,0-88.71,30.81-100.69,78.85l-10.19,40.88c-11.98,48.03,2.17,78.85,61.37,78.85h139.45l12.85-51.55H977.59
				c-22.08,0-27.61-8.45-21.7-32.19l8.3-33.28C970.24,383,980.07,375.36,1001.87,375.36z"/>
		</g>
		<path id="Icon" class="st2" d="M714.7,407.32c-26.37,0.49-52.25-8.14-73.1-24.62c-9.43-7.43-17.87-16.48-24.84-27
			c0.49,0.77,0.98,1.5,1.45,2.27c-0.49-0.77-1.01-1.53-1.5-2.3v-0.03c-0.49-0.79-1.01-1.56-1.56-2.3c-1.09-1.5-2.19-2.98-3.31-4.45
			c0,0,0,0,0-0.03c-1.15-1.45-2.32-2.87-3.53-4.26c0,0,0,0,0-0.03c-1.23-1.39-2.49-2.76-3.74-4.07v-0.03
			c-4.51-4.67-9.43-8.96-14.7-12.82c-1.53-1.09-3.06-2.16-4.65-3.17c-5.58-3.63-11.57-6.78-17.87-9.29
			c-0.01-0.02-0.02-0.03-0.03-0.05c0.22-3.55,0.63-7.13,1.23-10.71c1.56-9.43,4.26-18.36,8.01-26.73c2.4-5.47,5.27-10.68,8.55-15.6
			c-6.31-0.93-12.6-1.15-18.75-0.74c-19.27,1.2-37.3,8.44-51.87,20.14c-4.45-10.79-6.94-22.52-7-34.65
			c-0.03-5.14,0.38-10.33,1.26-15.58c0.05-0.33,0.11-0.68,0.19-1.01c-5.82,0.46-11.53,1.48-17.05,3.01
			c-19.68,5.41-37.11,17.33-49.33,33.61c-0.74,0.96-1.45,1.94-2.13,2.92c-7.52,10.85-12.79,23.45-15.09,37.3h-0.03
			c-4.92,29.46-24.62,55.75-54.36,67.64c-0.05,0.03-0.11,0.05-0.16,0.05c0,0.03-0.03,0.03-0.03,0.03
			c-18.69,7.46-37.47,14.13-56.38,19.95c-8.19,2.55-16.39,4.93-24.6,7.16c0.61-5.98,1.44-11.89,2.51-17.71
			c17.65-96.58,96.8-169.65,191.46-169.65c4.81,0,9.59,0.19,14.32,0.55c10.33,0.82,20.44,2.51,30.28,5
			c20.55,5.19,39.87,13.91,57.36,25.52c6.94,4.59,13.61,9.65,19.95,15.14c35.06,30.31,60.26,73.4,69.44,122.68
			c6.56,2.73,13.39,4.73,20.39,5.96c-15.96-109.89-104.69-193.97-211.74-193.97h-70.92c-118.33,0-214.28,102.78-214.28,229.56
			s95.95,229.56,214.28,229.56h70.92c86.99,0,161.86-55.53,195.45-135.27c-9.32,6.18-19.13,11.59-29.41,16.21
			c-34.43,59.93-95.98,99.94-166.05,99.94c-8.75,0-17.38-0.63-25.83-1.86c-5.48-0.78-10.89-1.82-16.21-3.09
			c9.57-31.37,30.73-58.56,59.97-75.34c3.22-1.86,6.5-3.55,9.81-5.06c16.37-7.68,36.05-11.67,53.29-12.22
			c-0.93,0-4.24,0.03-5.16-0.03c1.72,0,3.44,0.03,5.16,0.03c0.66-0.03,1.34-0.03,2-0.03h0.41c0.74-0.03,1.5-0.05,2.24-0.08
			c2.08-0.05,4.15-0.16,6.2-0.3c1.94-0.14,3.85-0.27,5.79-0.46c1.59-0.14,3.17-0.3,4.78-0.52c1.23-0.14,2.43-0.3,3.63-0.46
			c0.19,0,0.38-0.03,0.6-0.08c8.14-1.18,16.18-2.87,24.08-5.06c5.22-1.42,10.36-3.09,15.41-4.95c0.52-0.19,1.07-0.38,1.58-0.6
			c22.96-8.66,44.22-21.62,62.47-38.18l-0.03-0.03c0.63-0.55,1.26-1.09,1.89-1.67c0.14-0.11,0.27-0.25,0.41-0.38
			c0.79-0.74,1.58-1.5,2.38-2.27c0.71-0.68,1.42-1.39,2.13-2.1c0.25-0.25,0.49-0.46,0.68-0.71c14.7-15.39,24.79-35.25,28.07-57.33
			c0.22-1.37,0.38-2.73,0.55-4.1c0.41-3.83,0.63-7.73,0.63-11.67v-0.98C725.38,406.77,720.03,407.24,714.7,407.32z M694.99,447.79
			c-6.37,3.99-12.9,7.49-19.57,10.49c-43.12,19.7-91.36,19.62-133.2,2.49c-0.19-0.08-0.41-0.16-0.6-0.25
			c-0.57-0.22-1.12-0.47-1.64-0.68c-2.98-1.23-5.96-2.38-8.94-3.47c-44-16.04-89.91-18.58-132.95-9.59c0,0,27.63,5.98,39.84,11.48
			c13.83,6.23,26.37,14.84,37.08,25.28c-13.75,0.6-27.57,2.32-41.4,5.19c-6.67,1.37-13.34,3.03-19.98,4.95
			c-34.71,10.04-65.73,26.63-92.15,48.05c-2.91-4.68-5.65-9.49-8.21-14.43c-14.16-27.25-22.82-58.21-24.4-91.17
			c-0.19-3.69-0.27-7.41-0.27-11.12c0-1.93,0.03-3.86,0.08-5.78c15.24-4.03,30.39-8.56,45.42-13.56
			c44.3-16.45,94.58-14.44,138.58,6.44c0.08,0.03,0.14,0.05,0.19,0.11c0.68,0.3,1.37,0.66,2.05,0.98c0.25,0.11,0.46,0.22,0.68,0.33
			c0.05,0.03,0.14,0.05,0.22,0.08c0.57,0.27,1.18,0.55,1.78,0.79c2.95,1.2,5.96,2.21,8.99,2.92c0.52,0.14,1.04,0.27,1.56,0.36
			c0.55,0.16,1.12,0.27,1.69,0.36c0.25,0.08,0.49,0.11,0.74,0.14c0.74,0.16,1.48,0.27,2.24,0.36c2.13,0.33,4.26,0.52,6.42,0.6
			c0.79,0.03,1.61,0.05,2.4,0.05h0.25c1.15,0,2.3-0.03,3.44-0.11c1.18-0.05,2.35-0.16,3.53-0.27c1.12-0.14,2.27-0.3,3.39-0.46
			c0.52-0.08,1.04-0.19,1.59-0.3h0.03c0.46-0.08,0.9-0.16,1.34-0.27c0.46-0.08,0.93-0.19,1.39-0.33c0.68-0.16,1.39-0.33,2.08-0.52
			c0.25-0.05,0.52-0.14,0.79-0.22c2.21-0.63,4.4-1.39,6.53-2.27c0,0,0,0,0.03-0.03c1.09-0.44,2.19-0.93,3.25-1.45
			c1.01-0.46,2-0.98,2.98-1.53c0.77-0.38,1.5-0.82,2.27-1.28c0.55-0.33,1.12-0.68,1.67-1.04c0.63-0.41,1.28-0.82,1.91-1.28
			c0.63-0.41,1.26-0.87,1.89-1.39c1.17-0.87,2.35-1.8,3.44-2.79c0.14-0.08,0.27-0.19,0.38-0.3c0.44-0.38,0.87-0.76,1.28-1.2
			c0.44-0.35,0.85-0.74,1.23-1.15c0.46-0.44,0.9-0.9,1.34-1.37c0.33-0.33,0.63-0.66,0.93-0.98c0.44-0.46,0.87-0.93,1.28-1.42
			c0.03-0.03,0.08-0.08,0.11-0.14c0.66-0.74,1.28-1.5,1.89-2.3c0.03-0.03,0.05-0.08,0.08-0.11c0.57-0.74,1.12-1.45,1.64-2.19
			c0.05-0.08,0.11-0.16,0.14-0.22c0.25-0.36,0.49-0.68,0.71-1.01c3.74,4.86,8.01,9.37,12.71,13.39c0.11,0.08,0.22,0.19,0.33,0.27
			s0.22,0.19,0.33,0.27c18.56,15.55,42.22,22.76,66,20.39c-18.17-7.08-35.58-17-51.62-29.81c-7.38-5.88-14.21-12.19-20.5-18.86
			c-4.67-4.95-9.07-10.11-13.12-15.44c-0.57,4.73-1.89,9.4-3.94,13.86c-0.68,1.53-1.48,3.03-2.35,4.51
			c-0.98,1.64-2.08,3.22-3.28,4.78c-9.24,11.89-23.78,18.69-38.86,18.17c-5.74-0.22-11.31-1.45-16.53-3.63
			c-0.03,0-0.03-0.03-0.05-0.03c-1.5-0.63-2.98-1.34-4.4-2.13c-0.03-0.03-0.03-0.03-0.05-0.03c-10.82-5.11-22.08-9.16-33.67-12.16
			c0.08,0.22,0.19,0.44,0.33,0.66c-0.14-0.22-0.25-0.44-0.36-0.66c-13.61-3.53-27.66-5.58-41.98-6.09
			c-1.81-0.06-3.62-0.04-5.43-0.05c11.1-7.73,20.41-17.4,27.6-28.37c1.97-2.92,3.72-6.07,5.24-8.79c1.4-2.51,2.72-5.07,3.79-7.73
			c2.88-7.18,5.29-14.9,6.66-22.88c0.08-0.36,0.14-0.74,0.19-1.09c4.65-28.09,24.16-50.31,49.71-59.19
			c0.57,15.19,4.37,29.79,10.77,42.99c2.54,5.27,5.52,10.3,8.85,15.09c3.33-4.59,7.16-8.77,11.4-12.46
			c10.08-8.83,22.52-14.95,36.18-17.41c-2.68,7.32-4.73,15-6.04,22.96c-0.44,2.76-0.82,5.49-1.07,8.23h-0.03
			c-0.05,0.68-0.11,1.34-0.16,2.02c-0.03,0.33-0.05,0.68-0.08,1.01c-0.08,1.01-0.14,2.02-0.19,3.01c0,0.19-0.03,0.36-0.03,0.55
			c0,0.52-0.03,1.04-0.05,1.56c-0.03,0.66-0.05,1.31-0.03,1.97c0,0.27-0.03,0.52-0.03,0.79c-0.03,1.18-0.03,2.35,0,3.53
			c0.03,0,0.03,0.03,0.05,0.03c-0.03,0.79,0,1.56,0.03,2.35c1.18,0.33,2.35,0.66,3.5,1.04c20.74,6.59,37.9,20.22,49.25,37.66
			c8.23,12.43,17.87,22.44,29.32,31.18c0.11,0.11,0.22,0.19,0.33,0.27c22.55,17.19,50.34,26.81,79.5,26.81h0.52
			C710.38,433.39,704.18,442.08,694.99,447.79z"/>
	</g>
</g>
</svg>
